<svg xmlns="http://www.w3.org/2000/svg" xmlns:xlink="http://www.w3.org/1999/xlink" width="500" zoomAndPan="magnify" viewBox="0 0 375 374.999991" height="500" preserveAspectRatio="xMidYMid meet" version="1.0"><defs><clipPath id="b23cc03fc5"><path d="M 0 0 L 375 0 L 375 375 L 0 375 Z M 0 0 " clip-rule="nonzero"/></clipPath><clipPath id="16f3c105a4"><rect x="0" width="375" y="0" height="375"/></clipPath></defs><rect x="-37.5" width="450" fill="#ffffff" y="-37.499999" height="449.999989" fill-opacity="1"/><rect x="-37.5" width="450" fill="#000000" y="-37.499999" height="449.999989" fill-opacity="1"/><g transform="matrix(1, 0, 0, 1, 0, 0)"><g clip-path="url(#16f3c105a4)"><g clip-path="url(#b23cc03fc5)"><rect x="-82.5" width="540" fill="#000000" height="539.999987" y="-82.499998" fill-opacity="1"/></g></g></g><path fill="#ffffff" d="M 297.519531 78.214844 C 269.65625 50.363281 224.3125 50.363281 196.453125 78.214844 L 156.277344 118.398438 C 173.53125 115.222656 191.53125 117.347656 207.765625 124.65625 L 225.324219 107.105469 C 237.269531 95.160156 256.699219 95.160156 268.632812 107.105469 C 280.578125 119.03125 280.578125 138.472656 268.632812 150.417969 L 251.085938 167.96875 L 239.332031 179.730469 L 225.324219 193.726562 C 219.085938 199.964844 210.796875 202.863281 202.597656 202.578125 C 196.605469 202.382812 190.703125 200.382812 185.640625 196.695312 C 184.394531 195.777344 183.136719 194.859375 182.003906 193.726562 C 180.871094 192.59375 179.953125 191.355469 179.035156 190.101562 C 173.277344 187.152344 166.058594 188.007812 161.25 192.828125 L 143.496094 210.582031 C 146.21875 214.851562 149.40625 218.894531 153.121094 222.609375 C 156.839844 226.335938 160.890625 229.511719 165.160156 232.238281 C 169.785156 235.207031 174.675781 237.546875 179.738281 239.3125 C 198.003906 245.796875 218.351562 244.652344 235.851562 235.839844 C 242.46875 232.511719 248.683594 228.121094 254.199219 222.597656 L 257.351562 219.445312 L 297.527344 179.277344 C 325.378906 151.4375 325.378906 106.097656 297.519531 78.214844 Z M 297.519531 78.214844 " fill-opacity="1" fill-rule="nonzero"/><path fill="#ffffff" d="M 167.976562 251.085938 L 150.417969 268.632812 C 138.472656 280.578125 119.042969 280.578125 107.097656 268.632812 C 95.160156 256.6875 95.160156 237.269531 107.097656 225.324219 L 124.65625 207.753906 L 136.410156 196.011719 L 150.417969 182.015625 C 156.65625 175.777344 164.945312 172.867188 173.144531 173.164062 C 179.136719 173.359375 185.039062 175.339844 190.101562 179.042969 C 191.347656 179.964844 192.601562 180.882812 193.726562 182.015625 C 194.859375 183.128906 195.777344 184.382812 196.695312 185.648438 C 202.445312 188.601562 209.671875 187.722656 214.480469 182.914062 L 232.226562 165.167969 C 229.5 160.902344 226.324219 156.859375 222.597656 153.140625 C 218.894531 149.414062 214.839844 146.21875 210.570312 143.515625 C 205.957031 140.542969 201.054688 138.207031 195.992188 136.417969 C 177.726562 129.957031 157.378906 131.089844 139.878906 139.910156 C 133.285156 143.230469 127.058594 147.609375 121.542969 153.132812 L 118.398438 156.265625 L 78.222656 196.453125 C 50.363281 224.3125 50.363281 269.65625 78.222656 297.519531 C 106.085938 325.390625 151.425781 325.390625 179.289062 297.519531 L 219.453125 257.351562 C 202.210938 260.519531 184.210938 258.382812 167.976562 251.085938 Z M 167.976562 251.085938 " fill-opacity="1" fill-rule="nonzero"/></svg>